[h264 @ 0x560c87587d40] Reinit context to 1920x1088, pix_fmt: yuv420p
Input #0, mov,mp4,m4a,3gp,3g2,mj2, from '/var/www/html/project/media/video/original/Sequenza_Figline_PO.mp4':
  Metadata:
    major_brand     : mp42
    minor_version   : 0
    compatible_brands: mp42mp41
    creation_time   : 2023-11-04T17:29:31.000000Z
  Duration: 00:01:27.45, start: 0.000000, bitrate: 5267 kb/s
    Stream #0:0(eng): Video: h264 (High), 1 reference frame (avc1 / 0x31637661), yuv420p(left), 1920x1080 (1920x1088) [SAR 1:1 DAR 16:9], 4944 kb/s, 29.97 fps, 29.97 tbr, 30k tbn, 59.94 tbc (default)
    Metadata:
      creation_time   : 2023-11-04T17:29:31.000000Z
      handler_name    : ?Mainconcept Video Media Handler
      encoder         : AVC Coding
    Stream #0:1(eng): Audio: aac (LC) (mp4a / 0x6134706D), 48000 Hz, stereo, fltp, 317 kb/s (default)
    Metadata:
      creation_time   : 2023-11-04T17:29:31.000000Z
      handler_name    : #Mainconcept MP4 Sound Media Handler
[h264 @ 0x560c875eaf80] Reinit context to 1280x720, pix_fmt: yuv420p
Input #1, mov,mp4,m4a,3gp,3g2,mj2, from '/var/www/html/project/static/images/templates/Codino.mp4':
  Metadata:
    major_brand     : mp42
    minor_version   : 1
    compatible_brands: isommp41mp42
    creation_time   : 2021-07-11T07:02:58.000000Z
  Duration: 00:00:02.00, start: 0.000000, bitrate: 1007 kb/s
    Stream #1:0(ita): Audio: aac (LC) (mp4a / 0x6134706D), 44100 Hz, stereo, fltp, 102 kb/s (default)
    Metadata:
      creation_time   : 2021-07-11T07:02:58.000000Z
      handler_name    : Core Media Audio
    Stream #1:1(und): Video: h264 (High), 1 reference frame (avc1 / 0x31637661), yuv420p(tv, bt709, progressive, left), 1280x720 [SAR 1:1 DAR 16:9], 813 kb/s, 25 fps, 25 tbr, 25k tbn, 50k tbc (default)
    Metadata:
      creation_time   : 2021-07-11T07:02:58.000000Z
      handler_name    : Core Media Video
[Parsed_scale_0 @ 0x560c875b7940] w:1280 h:720 flags:'bilinear' interl:0
[Parsed_scale_2 @ 0x560c8768ab00] w:1280 h:720 flags:'bilinear' interl:0
Stream mapping:
  Stream #0:0 (h264) -> scale
  Stream #0:1 (aac) -> concat:in0:a0
  Stream #1:0 (aac) -> concat:in1:a0
  Stream #1:1 (h264) -> scale
  concat:out:v0 -> Stream #0:0 (libx264)
  concat:out:a0 -> Stream #0:1 (aac)
Press [q] to stop, [?] for help
[h264 @ 0x560c875ae480] Reinit context to 1920x1088, pix_fmt: yuv420p
[h264 @ 0x560c87984500] Reinit context to 1280x720, pix_fmt: yuv420p
[Parsed_scale_0 @ 0x560c88eac100] w:1280 h:720 flags:'bilinear' interl:0
[Parsed_scale_2 @ 0x560c88eb4140] w:1280 h:720 flags:'bilinear' interl:0
[graph 0 input from stream 0:0 @ 0x560c88eb72c0] w:1920 h:1080 pixfmt:yuv420p tb:1/30000 fr:30000/1001 sar:1/1 sws_param:flags=2
[graph 0 input from stream 1:1 @ 0x560c88eb82c0] w:1280 h:720 pixfmt:yuv420p tb:1/25000 fr:25/1 sar:1/1 sws_param:flags=2
[graph_0_in_0_1 @ 0x560c88eb9280] tb:1/48000 samplefmt:fltp samplerate:48000 chlayout:0x3
[graph_0_in_1_0 @ 0x560c88eba3c0] tb:1/44100 samplefmt:fltp samplerate:44100 chlayout:0x3
[Parsed_concat_4 @ 0x560c88eb52c0] auto-inserting filter 'auto_resampler_0' between the filter 'graph_0_in_1_0' and the filter 'Parsed_concat_4'
[Parsed_scale_0 @ 0x560c88eac100] w:1920 h:1080 fmt:yuv420p sar:1/1 -> w:1280 h:720 fmt:yuv420p sar:1/1 flags:0x2
[Parsed_setsar_1 @ 0x560c88eb3b80] w:1280 h:720 sar:1/1 dar:16/9 -> sar:1/1 dar:16/9
[Parsed_scale_2 @ 0x560c88eb4140] w:1280 h:720 fmt:yuv420p sar:1/1 -> w:1280 h:720 fmt:yuv420p sar:1/1 flags:0x2
[Parsed_setsar_3 @ 0x560c88eb4500] w:1280 h:720 sar:1/1 dar:16/9 -> sar:1/1 dar:16/9
[auto_resampler_0 @ 0x560c88ebebc0] ch:2 chl:stereo fmt:fltp r:44100Hz -> ch:2 chl:stereo fmt:fltp r:48000Hz
[libx264 @ 0x560c875da800] using SAR=1/1
[libx264 @ 0x560c875da800] using cpu capabilities: MMX2 SSE2Fast SSSE3 SSE4.2 AVX FMA3 BMI2 AVX2
[libx264 @ 0x560c875da800] profile High, level 3.1
[libx264 @ 0x560c875da800] 264 - core 155 r2917 0a84d98 - H.264/MPEG-4 AVC codec - Copyleft 2003-2018 - http://www.videolan.org/x264.html - options: cabac=1 ref=1 deblock=1:0:0 analyse=0x3:0x113 me=hex subme=2 psy=1 psy_rd=1.00:0.00 mixed_ref=0 me_range=16 chroma_me=1 trellis=0 8x8dct=1 cqm=0 deadzone=21,11 fast_pskip=1 chroma_qp_offset=0 threads=22 lookahead_threads=5 sliced_threads=0 nr=0 decimate=1 interlaced=0 bluray_compat=0 constrained_intra=0 bframes=3 b_pyramid=2 b_adapt=1 b_bias=0 direct=1 weightb=1 open_gop=0 weightp=1 keyint=250 keyint_min=25 scenecut=40 intra_refresh=0 rc_lookahead=10 rc=crf mbtree=1 crf=18.0 qcomp=0.60 qpmin=0 qpmax=69 qpstep=4 ip_ratio=1.40 aq=1:1.00
Output #0, mp4, to '/var/www/html/project/media/video/watermarks/Sequenza_Figline_PO.mp4':
  Metadata:
    major_brand     : mp42
    minor_version   : 0
    compatible_brands: mp42mp41
    encoder         : Lavf58.29.100
    Stream #0:0: Video: h264 (libx264), 1 reference frame (avc1 / 0x31637661), yuv420p(progressive), 1280x720 [SAR 1:1 DAR 16:9], q=-1--1, 29.97 fps, 30k tbn, 29.97 tbc (default)
    Metadata:
      encoder         : Lavc58.54.100 libx264
    Side data:
      cpb: bitrate max/min/avg: 0/0/0 buffer size: 0 vbv_delay: -1
    Stream #0:1: Audio: aac (LC) (mp4a / 0x6134706D), 48000 Hz, stereo, fltp, delay 1024, 128 kb/s (default)
    Metadata:
      encoder         : Lavc58.54.100 aac
[Parsed_concat_4 @ 0x560c88eb52c0] EOF on in0:v0, 1 streams left in segment.
[Parsed_concat_4 @ 0x560c88eb52c0] EOF on in0:a0, 0 streams left in segment.
[Parsed_concat_4 @ 0x560c88eb52c0] Segment finished at pts=87424000
[Parsed_concat_4 @ 0x560c88eb52c0] EOF on in1:v0, 1 streams left in segment.
[Parsed_concat_4 @ 0x560c88eb52c0] EOF on in1:a0, 0 streams left in segment.
[Parsed_concat_4 @ 0x560c88eb52c0] Segment finished at pts=89442687
No more output streams to write to, finishing.
frame= 2670 fps= 77 q=-1.0 Lsize=   65992kB time=00:01:29.45 bitrate=6043.6kbits/s speed=2.58x    
[AVIOContext @ 0x560c87586180] Statistics: 0 seeks, 69 writeouts
video:65848kB audio:47kB subtitle:0kB other streams:0kB global headers:0kB muxing overhead: 0.146377%
Input file #0 (/var/www/html/project/media/video/original/Sequenza_Figline_PO.mp4):
  Input stream #0:0 (video): 2620 packets read (54033365 bytes); 2620 frames decoded; 
  Input stream #0:1 (audio): 4098 packets read (3467595 bytes); 4098 frames decoded (4196352 samples); 
  Total: 6718 packets (57500960 bytes) demuxed
Input file #1 (/var/www/html/project/static/images/templates/Codino.mp4):
  Input stream #1:0 (audio): 89 packets read (26579 bytes); 87 frames decoded (89024 samples); 
  Input stream #1:1 (video): 50 packets read (203365 bytes); 50 frames decoded; 
  Total: 139 packets (229944 bytes) demuxed
Output file #0 (/var/www/html/project/media/video/watermarks/Sequenza_Figline_PO.mp4):
  Output stream #0:0 (video): 2670 frames encoded; 2670 packets muxed (67428498 bytes); 
  Output stream #0:1 (audio): 4193 frames encoded (4293249 samples); 4194 packets muxed (48601 bytes); 
  Total: 6864 packets (67477099 bytes) muxed
[AVIOContext @ 0x560c875dce00] Statistics: 2 seeks, 261 writeouts
[libx264 @ 0x560c875da800] frame I:15    Avg QP:16.86  size:235560
[libx264 @ 0x560c875da800] frame P:776   Avg QP:20.46  size: 60302
[libx264 @ 0x560c875da800] frame B:1879  Avg QP:24.71  size:  9101
[libx264 @ 0x560c875da800] consecutive B-frames:  4.7%  3.0%  4.4% 87.9%
[libx264 @ 0x560c875da800] mb I  I16..4:  6.8%  2.2% 90.9%
[libx264 @ 0x560c875da800] mb P  I16..4:  1.7%  3.1%  3.8%  P16..4: 45.9% 17.2% 19.3%  0.0%  0.0%    skip: 9.1%
[libx264 @ 0x560c875da800] mb B  I16..4:  0.1%  0.1%  0.0%  B16..8: 16.3%  8.2%  2.5%  direct:14.6%  skip:58.0%  L0:25.7% L1:34.4% BI:39.9%
[libx264 @ 0x560c875da800] 8x8 transform intra:30.4% inter:32.8%
[libx264 @ 0x560c875da800] coded y,uvDC,uvAC intra: 76.1% 63.5% 28.1% inter: 28.3% 9.2% 0.6%
[libx264 @ 0x560c875da800] i16 v,h,dc,p: 58% 20% 19%  4%
[libx264 @ 0x560c875da800] i8 v,h,dc,ddl,ddr,vr,hd,vl,hu: 19% 21% 17%  5%  8%  8%  8%  6%  8%
[libx264 @ 0x560c875da800] i4 v,h,dc,ddl,ddr,vr,hd,vl,hu: 17% 17% 11%  7% 11% 10% 10%  8% 10%
[libx264 @ 0x560c875da800] i8c dc,h,v,p: 55% 20% 19%  6%
[libx264 @ 0x560c875da800] Weighted P-Frames: Y:15.7% UV:1.3%
[libx264 @ 0x560c875da800] kb/s:6032.28
[aac @ 0x560c8769ca80] Qavg: 64556.766
[AVIOContext @ 0x560c8758f040] Statistics: 57567357 bytes read, 1 seeks
[AVIOContext @ 0x560c8759a240] Statistics: 1530915 bytes read, 42 seeks
